<svg xmlns="http://www.w3.org/2000/svg" viewBox="0 0 700 700" fill="none">
  <rect width="700" height="700" rx="48" fill="url(#bg)"/>
  <ellipse cx="350" cy="565" rx="170" ry="26" fill="#000" fill-opacity="0.45"/>
  <path d="M297 168c0-15 12-27 27-27h52c15 0 27 12 27 27v34h-106v-34Z" fill="#D4AF37"/>
  <path d="M280 208c0-8 6-14 14-14h112c8 0 14 6 14 14v26c0 16-13 29-29 29h-82c-16 0-29-13-29-29v-26Z" fill="#FFF4D6" fill-opacity="0.9"/>
  <path d="M265 264c0-13 11-24 24-24h122c13 0 24 11 24 24v182c0 59-48 107-107 107s-107-48-107-107V264Z" fill="url(#bottle)"/>
  <path d="M293 306c0-8 6-14 14-14h86c8 0 14 6 14 14v70c0 8-6 14-14 14h-86c-8 0-14-6-14-14v-70Z" fill="#000" fill-opacity="0.18"/>
  <path d="M300 284h100" stroke="#FFF3D0" stroke-opacity="0.7" stroke-width="8" stroke-linecap="round"/>
  <path d="M317 452c40 0 72-32 72-72" stroke="#FFF3D0" stroke-opacity="0.6" stroke-width="10" stroke-linecap="round"/>
  <path d="M205 258c28-34 73-58 145-58 77 0 124 26 151 64" stroke="#D4AF37" stroke-opacity="0.55" stroke-width="6" stroke-linecap="round"/>
  <path d="M173 382c21-61 64-99 124-115" stroke="#D4AF37" stroke-opacity="0.26" stroke-width="22" stroke-linecap="round"/>
  <path d="M517 286c18 22 30 50 34 86" stroke="#D4AF37" stroke-opacity="0.26" stroke-width="18" stroke-linecap="round"/>
  <circle cx="525" cy="189" r="44" fill="#D4AF37" fill-opacity="0.12"/>
  <circle cx="182" cy="203" r="30" fill="#FFF4D6" fill-opacity="0.08"/>
  <defs>
    <linearGradient id="bg" x1="95" y1="66" x2="612" y2="646" gradientUnits="userSpaceOnUse">
      <stop stop-color="#130F0A"/>
      <stop offset="0.55" stop-color="#050505"/>
      <stop offset="1" stop-color="#1A150B"/>
    </linearGradient>
    <linearGradient id="bottle" x1="349" y1="240" x2="349" y2="557" gradientUnits="userSpaceOnUse">
      <stop stop-color="#FFE9B1"/>
      <stop offset="0.45" stop-color="#F7D15E"/>
      <stop offset="1" stop-color="#B88916"/>
    </linearGradient>
  </defs>
</svg>