<svg xmlns="http://www.w3.org/2000/svg" viewBox="0 0 24 24" fill="none">
  <path d="M12 21V13" stroke="#fff" stroke-width="1.8" stroke-linecap="round"/>
  <path d="M12 13c3 0 5.5-2.1 5.5-4.7C17.5 6.4 16.2 5 14.6 5c-1.1 0-2.1.6-2.6 1.5C11.5 5.6 10.5 5 9.4 5 7.8 5 6.5 6.4 6.5 8.3 6.5 10.9 9 13 12 13Z" stroke="#fff" stroke-width="1.8" stroke-linejoin="round"/>
  <path d="M12 4.8c.9-1.9 2.4-2.8 3.6-2.8 1.6 0 2.9 1.5 2.9 3.5" stroke="#fff" stroke-width="1.8" stroke-linecap="round"/>
  <path d="M12 4.8C11.1 2.9 9.6 2 8.4 2 6.8 2 5.5 3.5 5.5 5.5" stroke="#fff" stroke-width="1.8" stroke-linecap="round"/>
  <path d="M9 21c.8-2.2 2.2-3.3 3-3.3.8 0 2.2 1.1 3 3.3" stroke="#fff" stroke-width="1.8" stroke-linecap="round"/>
</svg>
