<svg xmlns="http://www.w3.org/2000/svg" viewBox="0 0 24 24" fill="none">
  <path d="M12 21V9" stroke="#fff" stroke-width="1.8" stroke-linecap="round"/>
  <path d="M12 9c-3 0-6-2.2-6-5.2C6 3 6.7 2 7.7 2c1.2 0 2.1 1.2 2.3 2.7C10.5 3.3 11.4 2 12.6 2c1.2 0 2.1 1.3 2.6 2.7.2-1.5 1.1-2.7 2.3-2.7 1 0 1.7 1 1.7 1.8C19.2 6.8 15 9 12 9Z" stroke="#fff" stroke-width="1.8" stroke-linejoin="round"/>
  <path d="M12 21c-2.8 0-5-1.8-5-4.2 0-1.4.8-2.7 2.1-3.4" stroke="#fff" stroke-width="1.8" stroke-linecap="round"/>
  <path d="M12 21c2.8 0 5-1.8 5-4.2 0-1.4-.8-2.7-2.1-3.4" stroke="#fff" stroke-width="1.8" stroke-linecap="round"/>
</svg>
